<svg width="141" height="119" viewBox="0 0 141 119" fill="none" xmlns="http://www.w3.org/2000/svg">
<g clip-path="url(#clip0)">
<path d="M118.333 90.6667C115.747 90.68 113.229 91.4952 111.125 93L100.917 86.9583C101.398 85.4633 101.651 83.904 101.667 82.3333C101.655 78.6477 100.421 75.0699 98.1597 72.1598C95.898 69.2497 92.7354 67.1714 89.1668 66.25V56.5833C91.9468 55.6004 94.2899 53.6664 95.7819 51.123C97.2739 48.5796 97.8187 45.5907 97.3201 42.6845C96.8214 39.7782 95.3115 37.1418 93.057 35.2412C90.8025 33.3406 87.9488 32.2982 85.0001 32.2982C82.0514 32.2982 79.1976 33.3406 76.9432 35.2412C74.6887 37.1418 73.1787 39.7782 72.6801 42.6845C72.1815 45.5907 72.7263 48.5796 74.2183 51.123C75.7103 53.6664 78.0534 55.6004 80.8334 56.5833V66.25C77.2648 67.1714 74.1022 69.2497 71.8405 72.1598C69.5787 75.0699 68.3454 78.6477 68.3334 82.3333C68.3489 83.904 68.6018 85.4633 69.0834 86.9583L58.8751 93C56.7716 91.4952 54.2531 90.68 51.6668 90.6667C49.1945 90.6667 46.7777 91.3998 44.7221 92.7733C42.6665 94.1468 41.0644 96.0991 40.1183 98.3831C39.1722 100.667 38.9246 103.181 39.4069 105.605C39.8893 108.03 41.0798 110.257 42.8279 112.006C44.5761 113.754 46.8034 114.944 49.2281 115.426C51.6529 115.909 54.1662 115.661 56.4503 114.715C58.7344 113.769 60.6866 112.167 62.0601 110.111C63.4336 108.056 64.1668 105.639 64.1668 103.167C64.1513 102.038 63.9831 100.917 63.6668 99.8333L73.2501 94.125C76.3728 97.2292 80.597 98.9716 85.0001 98.9716C89.4032 98.9716 93.6274 97.2292 96.7501 94.125L106.333 99.8333C105.635 102.357 105.747 105.036 106.653 107.492C107.559 109.948 109.213 112.058 111.383 113.524C113.552 114.99 116.127 115.737 118.744 115.661C121.361 115.585 123.888 114.689 125.969 113.1C128.049 111.511 129.578 109.308 130.34 106.803C131.102 104.298 131.058 101.618 130.214 99.139C129.371 96.6605 127.77 94.5094 125.638 92.9893C123.507 91.4692 120.952 90.6567 118.333 90.6667ZM51.6668 107.333C50.8427 107.333 50.0371 107.089 49.3519 106.631C48.6667 106.173 48.1326 105.523 47.8173 104.761C47.5019 104 47.4194 103.162 47.5801 102.354C47.7409 101.546 48.1378 100.803 48.7205 100.22C49.3032 99.6377 50.0456 99.2408 50.8539 99.0801C51.6621 98.9193 52.4999 99.0018 53.2613 99.3172C54.0226 99.6325 54.6734 100.167 55.1312 100.852C55.589 101.537 55.8334 102.343 55.8334 103.167C55.8334 104.272 55.3944 105.332 54.613 106.113C53.8316 106.894 52.7718 107.333 51.6668 107.333ZM85.0001 40.6667C85.8242 40.6667 86.6298 40.911 87.315 41.3689C88.0002 41.8267 88.5342 42.4775 88.8496 43.2388C89.1649 44.0002 89.2475 44.838 89.0867 45.6462C88.9259 46.4545 88.5291 47.1969 87.9464 47.7796C87.3636 48.3623 86.6212 48.7592 85.813 48.92C85.0047 49.0807 84.1669 48.9982 83.4056 48.6828C82.6442 48.3675 81.9935 47.8334 81.5356 47.1482C81.0778 46.463 80.8334 45.6574 80.8334 44.8333C80.8334 43.7283 81.2724 42.6685 82.0538 41.8871C82.8352 41.1057 83.895 40.6667 85.0001 40.6667ZM85.0001 90.6667C83.3519 90.6667 81.7407 90.1779 80.3703 89.2623C78.9999 88.3466 77.9318 87.0451 77.3011 85.5224C76.6704 83.9997 76.5053 82.3241 76.8269 80.7076C77.1484 79.0911 77.9421 77.6062 79.1075 76.4408C80.273 75.2753 81.7578 74.4817 83.3743 74.1601C84.9908 73.8386 86.6664 74.0036 88.1891 74.6343C89.7118 75.2651 91.0133 76.3332 91.929 77.7036C92.8447 79.074 93.3334 80.6852 93.3334 82.3333C93.3334 84.5435 92.4554 86.6631 90.8926 88.2259C89.3298 89.7887 87.2102 90.6667 85.0001 90.6667ZM118.333 107.333C117.509 107.333 116.704 107.089 116.019 106.631C115.333 106.173 114.799 105.523 114.484 104.761C114.169 104 114.086 103.162 114.247 102.354C114.408 101.546 114.804 100.803 115.387 100.22C115.97 99.6377 116.712 99.2408 117.521 99.0801C118.329 98.9193 119.167 99.0018 119.928 99.3172C120.689 99.6325 121.34 100.167 121.798 100.852C122.256 101.537 122.5 102.343 122.5 103.167C122.5 104.272 122.061 105.332 121.28 106.113C120.498 106.894 119.438 107.333 118.333 107.333Z" fill="#EA2828" fill-opacity="0.46"/>
</g>
<defs>
<clipPath id="clip0">
<rect width="141" height="119" fill="white"/>
</clipPath>
</defs>
</svg>
