<svg width="112" height="120" viewBox="0 0 112 120" fill="none" xmlns="http://www.w3.org/2000/svg">
<path d="M43.5402 42.6746C43.0344 42.144 42.4327 41.7228 41.7696 41.4354C41.1066 41.148 40.3955 41 39.6772 41C38.9589 41 38.2478 41.148 37.5847 41.4354C36.9217 41.7228 36.3199 42.144 35.8141 42.6746L8.60942 70.9806C8.09945 71.5068 7.69468 72.133 7.41845 72.8228C7.14222 73.5127 7 74.2527 7 75C7 75.7473 7.14222 76.4873 7.41845 77.1772C7.69468 77.867 8.09945 78.4932 8.60942 79.0195L35.8141 107.325C36.3199 107.856 36.9217 108.277 37.5847 108.565C38.2478 108.852 38.9589 109 39.6772 109C40.3955 109 41.1066 108.852 41.7696 108.565C42.4327 108.277 43.0344 107.856 43.5402 107.325C44.0502 106.799 44.455 106.173 44.7312 105.483C45.0075 104.793 45.1497 104.053 45.1497 103.306C45.1497 102.559 45.0075 101.819 44.7312 101.129C44.455 100.439 44.0502 99.8128 43.5402 99.2865L20.1442 75L43.5402 50.7135C44.0502 50.1872 44.455 49.5611 44.7312 48.8712C45.0075 48.1813 45.1497 47.4414 45.1497 46.694C45.1497 45.9467 45.0075 45.2067 44.7312 44.5169C44.455 43.827 44.0502 43.2009 43.5402 42.6746ZM103.391 70.9806L76.1859 42.6746C75.6786 42.1467 75.0763 41.728 74.4135 41.4424C73.7507 41.1567 73.0403 41.0097 72.3228 41.0097C70.8739 41.0097 69.4843 41.6085 68.4597 42.6746C67.9524 43.2024 67.55 43.8291 67.2755 44.5187C67.0009 45.2084 66.8596 45.9475 66.8596 46.694C66.8596 48.2016 67.4352 49.6474 68.4597 50.7135L91.8558 75L68.4597 99.2865C67.9498 99.8128 67.545 100.439 67.2688 101.129C66.9925 101.819 66.8503 102.559 66.8503 103.306C66.8503 104.053 66.9925 104.793 67.2688 105.483C67.545 106.173 67.9498 106.799 68.4597 107.325C68.9656 107.856 69.5673 108.277 70.2304 108.565C70.8934 108.852 71.6045 109 72.3228 109C73.0411 109 73.7522 108.852 74.4153 108.565C75.0783 108.277 75.6801 107.856 76.1859 107.325L103.391 79.0195C103.901 78.4932 104.305 77.867 104.582 77.1772C104.858 76.4873 105 75.7473 105 75C105 74.2527 104.858 73.5127 104.582 72.8228C104.305 72.133 103.901 71.5068 103.391 70.9806Z" fill="#A72BBB" fill-opacity="0.4"/>
</svg>
