<svg width="104" height="119" viewBox="0 0 104 119" fill="none" xmlns="http://www.w3.org/2000/svg">
<path d="M86.5185 77.0744H70.0739C68.6206 77.0758 67.2271 77.6303 66.1995 78.6164C65.1718 79.6024 64.5938 80.9393 64.5924 82.3337V87.593H49.2825L37.1848 75.9857V61.2965H42.6663C44.1196 61.2951 45.513 60.7406 46.5407 59.7546C47.5684 58.7685 48.1464 57.4316 48.1478 56.0372V40.2593C48.1464 38.8649 47.5684 37.528 46.5407 36.542C45.513 35.5559 44.1196 35.0014 42.6663 35H26.2217C24.7684 35.0014 23.375 35.5559 22.3473 36.542C21.3196 37.528 20.7416 38.8649 20.7402 40.2593V56.0372C20.7416 57.4316 21.3196 58.7685 22.3473 59.7546C23.375 60.7406 24.7684 61.2951 26.2217 61.2965H31.7032V75.9857L18.8025 88.3635C18.2886 88.8566 18 89.5254 18 90.2227C18 90.9199 18.2886 91.5887 18.8025 92.0818L32.5063 105.23C33.0202 105.723 33.7172 106 34.444 106C35.1707 106 35.8677 105.723 36.3817 105.23L49.2825 92.8523H64.5924V98.1116C64.5938 99.506 65.1718 100.843 66.1995 101.829C67.2271 102.815 68.6206 103.37 70.0739 103.371H86.5185C87.9718 103.37 89.3652 102.815 90.3929 101.829C91.4206 100.843 91.9986 99.506 92 98.1116V82.3337C91.9986 80.9393 91.4206 79.6024 90.3929 78.6164C89.3652 77.6303 87.9718 77.0758 86.5185 77.0744ZM26.2217 40.2593H42.6663V56.0372H26.2217V40.2593ZM34.444 99.6526L24.6156 90.2227L34.444 80.7927L44.2724 90.2227L34.444 99.6526ZM70.0739 98.1116V82.3337H86.5185V98.1116H70.0739Z" fill="#AA6718" fill-opacity="0.29"/>
</svg>
